<svg xmlns="http://www.w3.org/2000/svg" x="0px" y="0px" width="42" height="42" viewBox="0 0 48 48">
<path d="M 18.5 4 C 17.136406 4 16 5.1364058 16 6.5 L 16 16.5 C 16 17.863594 17.136406 19 18.5 19 L 24.5 19 C 24.586399 19 24.666535 19.017765 24.748047 19.03125 C 25.120408 20.172604 26.182682 21 27.449219 21 C 28.710478 21 29.768448 20.178902 30.144531 19.044922 C 30.257961 19.017722 30.376178 19 30.5 19 L 36.5 19 C 37.863594 19 39 17.863594 39 16.5 L 39 6.5 C 39 5.1364058 37.863594 4 36.5 4 L 30.5 4 C 29.34203 4 28.301263 4.4749416 27.5 5.2050781 C 26.698737 4.4749416 25.65797 4 24.5 4 L 18.5 4 z M 19 7 L 24.5 7 C 25.346499 7 26 7.6535009 26 8.5 L 26 16.382812 C 25.516904 16.205761 25.040679 16 24.5 16 L 19 16 L 19 7 z M 30.5 7 L 36 7 L 36 16 L 30.5 16 C 29.959321 16 29.483096 16.205761 29 16.382812 L 29 8.5 C 29 7.6535009 29.653501 7 30.5 7 z M 41.613281 21.019531 C 40.493082 21.029231 39.429184 21.473279 38.484375 22.175781 C 37.470126 22.929243 34.418425 25.208042 31.777344 27.179688 C 31.204622 25.351508 29.505924 24 27.5 24 L 23.107422 24 C 20.296203 24 18.985532 23.772226 17.859375 23.533203 C 16.733218 23.29418 15.646783 23 13.826172 23 C 9.9413941 23 7.0123317 25.492986 5.09375 27.791016 C 3.1751683 30.089045 2.1347656 32.384766 2.1347656 32.384766 A 1.5002787 1.5002787 0 1 0 4.8652344 33.628906 C 4.8652344 33.628906 5.7643161 31.669814 7.3964844 29.714844 C 9.0286527 27.759873 11.25995 26 13.826172 26 C 15.347561 26 16.006735 26.20582 17.236328 26.466797 C 18.465921 26.727774 20.123641 27 23.107422 27 L 27.5 27 C 28.346499 27 29 27.653501 29 28.5 C 29 28.969499 28.794195 29.374296 28.470703 29.646484 C 28.470416 29.646699 28.429688 29.677734 28.429688 29.677734 A 1.5001988 1.5001988 0 0 0 28.345703 29.748047 A 1.5001988 1.5001988 0 0 0 28.34375 29.75 C 28.105295 29.908613 27.816466 30 27.5 30 L 20.5 30 A 1.50015 1.50015 0 1 0 20.5 33 L 27.5 33 C 28.440637 33 29.315307 32.701451 30.041016 32.199219 C 30.042186 32.198409 30.043753 32.198076 30.044922 32.197266 A 1.5001988 1.5001988 0 0 0 30.224609 32.082031 C 30.224609 32.082031 38.775959 25.696426 40.273438 24.583984 A 1.50015 1.50015 0 0 0 40.273438 24.582031 C 40.837627 24.162534 41.309824 24.022381 41.640625 24.019531 C 41.971426 24.016631 42.218287 24.096901 42.560547 24.439453 C 43.150922 25.029324 43.147391 25.935102 42.572266 26.533203 C 37.217133 31.036197 33.848465 34.036886 31.623047 35.794922 C 29.369881 37.574924 28.424996 38 27.5 38 C 23.847885 38 19.80067 37 15.5 37 C 13 37 11.242781 38.343609 10.300781 39.599609 C 9.3587815 40.855609 9.0449219 42.136719 9.0449219 42.136719 A 1.50015 1.50015 0 1 0 11.955078 42.863281 C 11.955078 42.863281 12.141219 42.144391 12.699219 41.400391 C 13.257219 40.656391 14 40 15.5 40 C 19.30733 40 23.336115 41 27.5 41 C 29.402004 41 31.084837 40.044435 33.482422 38.150391 C 35.849764 36.280238 39.175413 33.30991 44.498047 28.833984 A 1.50015 1.50015 0 0 0 44.681641 28.681641 C 44.688541 28.674741 44.690436 28.665143 44.697266 28.658203 L 44.701172 28.662109 L 44.753906 28.607422 A 1.50015 1.50015 0 0 0 45.083984 28.074219 C 46.330485 26.321792 46.248887 23.884269 44.681641 22.318359 C 43.8529 21.488911 42.73348 21.009881 41.613281 21.019531 z"></path>
</svg>