<?xml version="1.0" standalone="no"?>
<!DOCTYPE svg PUBLIC "-//W3C//DTD SVG 20010904//EN"
 "http://www.w3.org/TR/2001/REC-SVG-20010904/DTD/svg10.dtd">
<svg version="1.0" xmlns="http://www.w3.org/2000/svg"
 width="512.000000pt" height="512.000000pt" viewBox="0 0 512.000000 512.000000"
 preserveAspectRatio="xMidYMid meet">

<g transform="translate(0.000000,512.000000) scale(0.100000,-0.100000)"
fill="#000000" stroke="none">
<path d="M3495 4421 c-51 -23 -118 -98 -133 -149 -7 -22 -12 -74 -12 -116 l0
-76 -1638 0 c-1819 0 -1668 6 -1698 -66 -21 -51 -21 -2698 1 -2750 28 -68 -90
-64 1709 -64 l1625 0 3 -158 c3 -175 11 -201 75 -266 70 -69 39 -67 823 -64
l705 3 45 30 c59 40 98 98 110 166 7 36 9 614 8 1700 -3 1481 -5 1647 -19
1679 -26 56 -70 101 -124 126 l-50 24 -695 0 c-653 0 -697 -2 -735 -19z m833
-387 c89 -37 145 -124 146 -224 1 -140 -105 -244 -246 -243 -251 3 -330 345
-106 457 61 31 147 35 206 10z m-678 -1234 l0 -1070 -1720 0 -1720 0 0 1070 0
1070 1720 0 1720 0 0 -1070z m1185 -545 l0 -150 -482 -3 -483 -2 0 155 0 155
483 -2 482 -3 0 -150z m5 -525 l0 -150 -485 0 -485 0 0 150 0 150 485 0 485 0
0 -150z m-2832 -140 c95 -58 95 -192 0 -250 -60 -36 -134 -23 -188 35 -21 23
-25 36 -25 90 0 57 3 67 30 95 17 18 39 36 50 40 36 15 99 11 133 -10z m2832
-390 l0 -150 -605 0 -605 0 0 75 0 75 69 0 c116 0 154 25 167 109 l7 41 483 0
484 0 0 -150z"/>
<path d="M1212 910 c-48 -10 -96 -37 -129 -72 -29 -30 -63 -106 -63 -140 l0
-28 915 0 c879 0 915 1 915 18 0 34 -31 108 -59 143 -16 19 -50 45 -77 59
l-49 25 -705 2 c-388 0 -724 -3 -748 -7z"/>
</g>
</svg>
