<?xml version="1.0" standalone="no"?>
<!DOCTYPE svg PUBLIC "-//W3C//DTD SVG 20010904//EN"
 "http://www.w3.org/TR/2001/REC-SVG-20010904/DTD/svg10.dtd">
<svg version="1.0" xmlns="http://www.w3.org/2000/svg"
 width="512.000000pt" height="512.000000pt" viewBox="0 0 512.000000 512.000000"
 preserveAspectRatio="xMidYMid meet">

<g transform="translate(0.000000,512.000000) scale(0.100000,-0.100000)"
fill="#000000" stroke="none">
<path d="M2330 5018 c-18 -147 -13 -140 -114 -161 -48 -10 -125 -30 -171 -46
l-85 -28 -72 93 c-40 52 -77 94 -81 94 -17 0 -367 -205 -366 -215 0 -5 19 -57
42 -114 l42 -104 -129 -129 -130 -129 -65 27 c-36 14 -87 34 -112 44 l-46 18
-104 -180 c-57 -99 -105 -184 -107 -187 -1 -4 41 -39 93 -80 52 -40 95 -75 95
-76 0 -2 -13 -43 -29 -92 -16 -49 -37 -128 -46 -175 l-17 -85 -97 -12 c-53 -7
-108 -15 -123 -18 l-28 -5 0 -213 0 -212 28 -6 c15 -3 70 -11 123 -18 l97 -12
17 -85 c9 -47 30 -126 46 -175 16 -49 29 -90 29 -92 0 -1 -43 -36 -95 -76 -52
-41 -94 -76 -93 -80 2 -3 50 -88 107 -187 l104 -180 46 18 c25 10 76 30 112
44 l65 27 130 -130 130 -129 -42 -103 c-24 -57 -43 -108 -43 -114 -1 -10 349
-215 366 -215 4 0 41 42 81 94 l72 93 85 -28 c46 -16 123 -36 171 -46 101 -21
96 -14 114 -160 l13 -103 217 0 217 0 13 103 c18 147 13 139 117 160 49 10
126 31 171 46 l82 27 73 -93 c39 -51 76 -93 81 -93 17 0 366 205 366 215 -1 6
-20 57 -43 113 l-43 104 129 129 130 130 66 -27 c36 -14 87 -34 112 -44 l46
-18 104 181 c57 99 104 184 104 188 0 4 -38 38 -85 74 -47 37 -88 70 -93 74
-4 4 6 48 22 98 16 49 37 128 46 175 l17 85 97 12 c53 7 108 15 124 18 l27 6
0 212 0 213 -27 5 c-16 3 -71 11 -124 18 l-97 12 -17 85 c-9 47 -30 126 -46
175 -16 50 -26 94 -22 98 5 4 46 37 93 74 47 36 85 70 85 74 0 4 -47 89 -104
188 l-104 181 -46 -18 c-25 -10 -76 -30 -112 -44 l-65 -27 -130 130 -130 129
42 103 c24 57 43 109 44 114 0 10 -349 215 -366 215 -5 0 -42 -42 -81 -93
l-73 -93 -82 27 c-45 15 -122 36 -171 46 -104 21 -99 13 -117 161 l-13 102
-217 0 -217 0 -13 -102z m329 -145 c17 -140 10 -129 104 -142 133 -19 302 -69
433 -127 8 -4 103 107 145 169 7 10 149 -69 149 -83 0 -5 -9 -32 -20 -60 -11
-27 -29 -72 -40 -99 l-19 -49 57 -43 c86 -65 205 -183 268 -265 31 -41 62 -74
68 -73 6 0 54 17 106 38 52 22 98 37 102 35 10 -7 78 -129 77 -140 0 -5 -38
-38 -85 -74 -46 -35 -84 -68 -84 -72 0 -3 13 -40 30 -80 44 -110 79 -241 93
-348 l13 -95 79 -13 c44 -6 95 -14 113 -17 l32 -6 0 -84 0 -84 -32 -6 c-18 -3
-69 -11 -113 -17 l-79 -13 -13 -95 c-14 -107 -49 -238 -93 -348 -17 -40 -30
-77 -30 -80 0 -4 38 -37 84 -72 47 -36 85 -69 85 -74 1 -11 -67 -133 -77 -140
-4 -2 -50 13 -102 35 -52 21 -100 38 -106 38 -6 1 -37 -32 -68 -73 -63 -82
-182 -200 -268 -265 l-57 -43 20 -51 c12 -29 30 -74 40 -100 10 -26 19 -52 19
-57 0 -14 -142 -93 -149 -83 -3 5 -35 46 -69 91 l-64 81 -51 -21 c-142 -56
-263 -90 -394 -108 -94 -14 -87 -3 -104 -142 l-12 -98 -87 0 -87 0 -12 98
c-17 139 -10 128 -104 141 -133 19 -302 69 -433 127 -8 4 -103 -107 -145 -169
-7 -10 -149 69 -149 83 0 5 9 32 20 60 11 27 29 72 39 99 l20 49 -82 65 c-93
74 -193 175 -256 259 -24 32 -48 58 -55 57 -6 0 -54 -17 -106 -38 -52 -22 -98
-37 -102 -35 -4 3 -24 34 -44 70 -42 75 -45 68 63 151 51 39 73 62 69 72 -3 9
-25 75 -50 146 -25 72 -53 175 -62 230 -9 55 -18 110 -20 121 -3 19 -15 23
-86 33 -153 21 -138 10 -138 106 0 96 -15 85 138 106 93 13 83 0 102 134 14
94 50 221 91 323 16 41 29 77 29 81 0 5 -33 34 -74 65 -107 82 -104 75 -62
150 20 36 40 67 44 70 4 2 50 -13 102 -35 52 -21 100 -38 106 -38 7 -1 31 25
55 57 63 84 163 185 256 259 l82 65 -20 49 c-10 27 -28 72 -39 99 -11 28 -20
55 -20 60 0 14 142 93 149 83 42 -62 137 -173 145 -169 131 58 300 108 433
127 94 13 87 2 104 142 l12 97 87 0 87 0 12 -97z"/>
<path d="M2343 4425 c-105 -19 -225 -61 -333 -116 -105 -54 -230 -142 -230
-161 1 -7 21 -35 45 -61 l44 -48 62 46 c192 141 389 205 633 205 280 0 513
-94 715 -286 148 -140 246 -305 298 -502 23 -85 26 -116 26 -257 0 -141 -3
-172 -26 -257 -52 -197 -150 -362 -298 -502 -147 -140 -313 -228 -508 -268
-129 -27 -356 -21 -476 12 -181 49 -323 130 -459 260 -144 138 -241 304 -293
498 -23 85 -26 116 -26 257 0 142 3 171 26 260 32 120 107 276 175 365 l49 65
-45 40 c-69 61 -66 61 -115 -2 -116 -151 -203 -358 -232 -550 -76 -503 176
-1000 626 -1237 94 -50 161 -76 279 -107 107 -29 362 -37 485 -16 506 89 904
497 981 1007 75 499 -178 998 -627 1235 -108 56 -236 101 -348 120 -102 18
-328 18 -428 0z"/>
<path d="M2722 4018 l3 -73 73 -3 72 -3 0 76 0 75 -75 0 -76 0 3 -72z"/>
<path d="M3022 3868 l3 -73 73 -3 72 -3 0 76 0 75 -75 0 -76 0 3 -72z"/>
<path d="M1775 3577 c-3 -6 -4 -161 -3 -342 l3 -330 188 -3 187 -2 0 74 0 75
-112 3 -113 3 -3 58 -3 57 106 0 105 0 0 75 0 75 -105 0 -106 0 3 58 3 57 113
3 112 3 0 74 0 75 -185 0 c-140 0 -187 -3 -190 -13z"/>
<path d="M2295 3579 c-3 -8 -4 -163 -3 -344 l3 -330 72 -3 72 -3 3 103 3 102
90 -107 c49 -59 92 -107 95 -107 3 0 29 22 58 48 l53 47 -76 90 c-66 78 -74
91 -59 100 41 24 87 71 106 108 16 32 19 54 16 103 -5 81 -41 137 -112 173
-44 23 -64 26 -183 29 -106 4 -134 2 -138 -9z m265 -164 c27 -25 26 -70 -2
-89 -13 -9 -43 -16 -70 -16 l-48 0 0 58 c0 32 3 62 8 66 12 13 92 -1 112 -19z"/>
<path d="M2890 3246 l0 -346 75 0 75 0 0 114 0 113 69 6 c145 12 231 97 231
227 0 68 -21 119 -67 161 -58 55 -87 63 -240 67 l-143 4 0 -346z m280 169 c13
-12 20 -31 20 -55 0 -51 -26 -72 -95 -78 l-55 -4 0 82 0 82 55 -4 c34 -3 62
-12 75 -23z"/>
<path d="M710 1060 l0 -160 -355 0 -355 0 0 -352 c0 -225 4 -368 11 -393 14
-51 93 -130 146 -144 25 -7 246 -11 639 -11 l600 0 55 27 c69 36 106 88 119
168 5 33 10 205 10 383 l0 322 -360 0 -360 0 0 85 0 85 810 0 810 0 0 -85 0
-85 -355 0 -356 0 3 -367 c3 -358 4 -369 25 -410 27 -51 82 -96 132 -112 27
-8 217 -11 637 -11 581 0 600 1 644 21 56 25 86 53 113 104 21 39 22 53 25
408 l3 367 -356 0 -355 0 0 85 0 85 810 0 810 0 0 -85 0 -85 -360 0 -360 0 0
-322 c0 -178 5 -350 10 -383 13 -79 50 -131 119 -167 l53 -28 269 0 269 0 0
75 0 75 -258 0 c-246 0 -259 1 -280 20 -22 20 -22 26 -22 300 l0 280 635 0
635 0 0 -275 0 -276 -25 -24 -24 -25 -256 0 -255 0 0 -75 0 -75 256 0 c173 0
270 4 298 12 54 16 128 90 144 144 8 29 12 145 12 393 l0 351 -355 0 -355 0 0
160 0 160 -1850 0 -1850 0 0 -160z m710 -590 c0 -274 0 -280 -22 -300 -21 -20
-32 -20 -610 -20 l-589 0 -24 25 -25 24 0 276 0 275 635 0 635 0 0 -280z
m1778 -1 l-3 -281 -24 -19 c-22 -18 -47 -19 -611 -19 -564 0 -589 1 -611 19
l-24 19 -3 281 -3 281 641 0 641 0 -3 -281z"/>
<path d="M714 516 c-3 -7 -4 -42 -2 -77 l3 -64 73 -3 72 -3 0 81 0 80 -70 0
c-50 0 -72 -4 -76 -14z"/>
<path d="M2334 517 c-3 -8 -4 -43 -2 -78 l3 -64 75 0 75 0 0 75 0 75 -73 3
c-55 2 -74 -1 -78 -11z"/>
<path d="M2634 517 c-3 -8 -4 -43 -2 -78 l3 -64 75 0 75 0 0 75 0 75 -73 3
c-55 2 -74 -1 -78 -11z"/>
<path d="M3960 450 l0 -81 73 3 72 3 0 75 0 75 -72 3 -73 3 0 -81z"/>
<path d="M4260 450 l0 -81 73 3 72 3 0 75 0 75 -72 3 -73 3 0 -81z"/>
<path d="M4560 450 l0 -81 73 3 72 3 0 75 0 75 -72 3 -73 3 0 -81z"/>
</g>
</svg>
