<?xml version="1.0" standalone="no"?>
<!DOCTYPE svg PUBLIC "-//W3C//DTD SVG 20010904//EN"
 "http://www.w3.org/TR/2001/REC-SVG-20010904/DTD/svg10.dtd">
<svg version="1.0" xmlns="http://www.w3.org/2000/svg"
 width="512.000000pt" height="512.000000pt" viewBox="0 0 512.000000 512.000000"
 preserveAspectRatio="xMidYMid meet">

<g transform="translate(0.000000,512.000000) scale(0.100000,-0.100000)"
fill="#000000" stroke="none">
<path d="M1920 4681 c-167 -36 -281 -100 -405 -225 -103 -103 -167 -212 -207
-352 -29 -102 -31 -295 -5 -393 44 -161 102 -264 212 -376 111 -112 231 -179
394 -220 76 -19 244 -22 325 -5 32 6 60 9 63 6 3 -3 26 -42 52 -88 l46 -82 70
-12 c39 -6 91 -15 117 -18 l48 -7 51 -100 c28 -55 58 -103 68 -108 9 -5 54
-14 101 -20 132 -19 122 -12 180 -124 29 -56 54 -103 54 -104 1 -1 74 -13 161
-27 l160 -25 242 102 c182 76 241 106 238 117 -2 8 -34 166 -70 350 l-67 335
-415 295 c-228 162 -423 303 -434 313 -13 12 -19 31 -19 61 0 66 -36 192 -80
282 -77 155 -203 279 -365 359 -158 78 -350 102 -515 66z m350 -228 c402 -132
534 -642 247 -950 -113 -121 -237 -181 -394 -190 -118 -7 -194 8 -302 60 -196
95 -324 298 -324 517 -1 167 52 299 166 414 168 169 384 222 607 149z m950
-1034 l337 -240 12 -66 c6 -36 10 -68 7 -70 -3 -4 -605 419 -739 519 -16 12
-17 16 -1 61 12 36 20 47 31 42 9 -3 167 -113 353 -246z m-47 -359 c251 -179
453 -328 449 -332 -4 -4 -60 -30 -125 -57 l-119 -51 -76 13 -76 12 -56 105
-56 104 -119 21 -118 20 -53 99 c-29 55 -58 102 -66 106 -7 4 -49 13 -93 19
-131 19 -134 21 -150 51 -8 16 -15 31 -15 33 0 2 34 30 76 62 41 32 87 73 101
92 14 19 29 32 33 31 4 -2 212 -149 463 -328z"/>
<path d="M1762 4250 c-12 -5 -30 -25 -39 -45 -52 -110 88 -206 170 -115 31 35
35 75 12 121 -24 45 -86 61 -143 39z"/>
<path d="M828 2079 c-317 -25 -593 -155 -738 -347 -93 -124 -90 -110 -90 -426
0 -255 2 -280 20 -315 23 -46 93 -110 164 -151 297 -170 1069 -316 2107 -400
l267 -22 623 247 c1047 415 1761 706 1871 761 69 35 80 65 56 148 -16 55 -115
154 -188 188 -301 142 -680 135 -1643 -31 l-107 -18 -20 33 c-32 50 -88 96
-175 141 -78 40 -235 95 -305 107 -32 6 -1375 80 -1625 90 -60 2 -158 0 -217
-5z m1017 -250 c709 -37 777 -42 857 -64 99 -28 224 -84 211 -95 -9 -9 -225
-56 -453 -99 -307 -58 -513 -86 -757 -101 -133 -9 -173 -15 -193 -29 -85 -61
-51 -177 55 -188 163 -19 769 66 1295 181 330 72 913 166 1250 202 284 30 547
10 692 -54 l42 -18 -99 -41 c-574 -234 -853 -346 -1480 -595 l-730 -290 -115
6 c-480 27 -1320 140 -1680 226 -221 54 -429 132 -503 190 l-27 21 0 225 0
225 29 43 c78 113 216 205 377 251 195 56 260 56 1229 4z"/>
</g>
</svg>
