<?xml version="1.0" standalone="no"?>
<!DOCTYPE svg PUBLIC "-//W3C//DTD SVG 20010904//EN"
 "http://www.w3.org/TR/2001/REC-SVG-20010904/DTD/svg10.dtd">
<svg version="1.0" xmlns="http://www.w3.org/2000/svg"
 width="512.000000pt" height="512.000000pt" viewBox="0 0 512.000000 512.000000"
 preserveAspectRatio="xMidYMid meet">

<g transform="translate(0.000000,512.000000) scale(0.100000,-0.100000)"
fill="#000000" stroke="none">
<path d="M2980 4759 c-19 -12 -63 -50 -96 -84 -402 -410 -372 -1155 60 -1523
58 -49 102 -56 136 -20 39 42 27 72 -56 151 -173 163 -260 360 -271 617 -12
278 72 500 259 690 93 94 104 118 71 158 -27 32 -63 36 -103 11z"/>
<path d="M4636 4759 c-19 -15 -26 -30 -26 -53 0 -28 12 -45 76 -107 159 -154
238 -320 265 -553 35 -294 -68 -582 -275 -772 -54 -50 -66 -66 -66 -93 0 -41
31 -71 74 -71 28 0 47 12 109 71 204 190 311 449 311 754 1 243 -57 439 -184
625 -43 63 -151 175 -195 202 -39 23 -56 23 -89 -3z"/>
<path d="M3140 4553 c-111 -74 -212 -230 -256 -398 -29 -108 -27 -333 4 -440
44 -151 123 -282 217 -359 53 -44 96 -50 127 -18 39 39 27 76 -46 149 -124
122 -182 285 -173 488 7 179 60 310 168 416 31 31 61 65 67 75 14 29 -4 79
-33 92 -34 16 -46 15 -75 -5z"/>
<path d="M4475 4545 c-42 -41 -33 -67 45 -147 53 -53 81 -92 109 -152 53 -110
66 -171 66 -306 -1 -199 -51 -327 -181 -462 -35 -36 -64 -75 -64 -86 0 -10 9
-31 21 -46 28 -36 75 -35 122 2 184 146 289 453 247 722 -30 191 -128 374
-249 466 -52 40 -83 43 -116 9z"/>
<path d="M3264 4318 c-88 -81 -133 -190 -141 -343 -5 -82 -2 -115 16 -184 50
-198 192 -330 256 -238 25 36 18 66 -29 119 -57 62 -87 141 -94 240 -8 125 24
224 99 305 46 50 50 83 14 118 -36 36 -68 32 -121 -17z"/>
<path d="M4326 4339 c-38 -30 -36 -76 8 -118 135 -131 136 -413 3 -555 -57
-60 -48 -120 21 -141 58 -17 162 104 205 240 29 93 31 263 3 345 -30 88 -76
167 -122 210 -49 45 -79 50 -118 19z"/>
<path d="M3717 4306 c-65 -18 -117 -61 -149 -126 l-28 -54 0 -988 0 -988
-1188 0 -1189 0 -21 -23 c-12 -13 -22 -29 -22 -35 0 -8 -24 -12 -75 -12 -46 0
-75 4 -75 10 0 6 -11 22 -25 35 l-24 25 -325 0 c-303 0 -329 -1 -380 -20 -64
-24 -135 -84 -169 -143 -45 -78 -49 -120 -45 -592 3 -426 4 -441 25 -487 32
-69 97 -134 169 -169 l64 -30 0 -92 c0 -76 4 -101 24 -143 48 -104 122 -134
326 -134 197 0 262 24 317 118 24 40 29 61 33 147 l5 100 1595 0 1595 0 5
-100 c4 -86 9 -107 33 -147 55 -94 120 -118 317 -118 204 0 278 30 326 134 20
42 24 67 24 143 l0 92 64 30 c72 35 137 100 169 169 21 46 22 61 25 487 4 472
0 514 -45 592 -34 59 -105 119 -169 143 -51 19 -77 20 -394 20 l-340 0 0 978
c0 1090 3 1035 -69 1110 -59 61 -100 75 -226 79 -71 2 -127 -2 -158 -11z
m-2954 -2607 c14 -6 30 -22 36 -36 15 -34 15 -437 -1 -466 -28 -53 -92 -64
-133 -22 l-25 24 0 231 0 231 25 24 c26 27 60 32 98 14z m642 -14 l25 -24 0
-231 0 -231 -25 -24 c-41 -42 -105 -31 -133 22 -16 29 -16 432 -1 467 23 49
95 61 134 21z m622 1 l28 -24 0 -230 c0 -230 0 -230 -24 -256 -32 -34 -80 -35
-118 -2 l-28 24 -3 188 c-2 104 -1 208 3 232 13 85 83 118 142 68z m627 -2
l26 -27 0 -229 0 -229 -25 -24 c-33 -34 -84 -34 -119 1 l-26 27 0 219 c0 222
4 248 39 275 28 22 76 15 105 -13z"/>
</g>
</svg>
