<?xml version="1.0" standalone="no"?>
<!DOCTYPE svg PUBLIC "-//W3C//DTD SVG 20010904//EN"
 "http://www.w3.org/TR/2001/REC-SVG-20010904/DTD/svg10.dtd">
<svg version="1.0" xmlns="http://www.w3.org/2000/svg"
 width="512.000000pt" height="512.000000pt" viewBox="0 0 512.000000 512.000000"
 preserveAspectRatio="xMidYMid meet">

<g transform="translate(0.000000,512.000000) scale(0.100000,-0.100000)"
fill="#000000" stroke="none">
<path d="M1180 5090 c-20 -20 -20 -33 -20 -788 l0 -769 23 -21 c29 -27 67 -28
98 -3 l24 19 3 716 2 716 1250 0 1250 0 2 -716 3 -716 24 -19 c32 -26 73 -24
99 4 l22 23 0 767 c0 754 0 767 -20 787 -20 20 -33 20 -1380 20 -1347 0 -1360
0 -1380 -20z"/>
<path d="M360 3381 c-134 -43 -238 -127 -298 -239 -63 -118 -62 -97 -62 -1081
0 -790 2 -902 16 -960 44 -178 174 -312 353 -365 44 -13 108 -16 338 -16 l284
0 24 25 c14 13 25 31 25 40 0 11 12 15 50 15 33 0 50 -4 50 -12 0 -7 -7 -70
-15 -141 -8 -70 -12 -139 -9 -153 6 -24 49 -54 78 -54 8 0 27 10 41 23 25 22
26 25 90 625 36 332 65 610 65 618 0 12 169 14 1170 14 995 0 1170 -2 1170
-14 0 -8 36 -349 80 -759 44 -410 80 -755 80 -766 l0 -21 -1330 0 -1331 0 3
66 c2 62 0 68 -25 90 -35 30 -59 30 -92 1 -21 -18 -28 -35 -35 -92 -16 -118
-13 -172 10 -195 20 -20 33 -20 1470 -20 1437 0 1450 0 1470 20 27 27 26 51
-15 432 -19 178 -35 326 -35 331 0 4 23 7 50 7 38 0 50 -4 50 -15 0 -9 11 -27
25 -40 l24 -25 284 0 c230 0 294 3 338 16 179 53 309 187 353 365 14 58 16
170 16 960 0 984 1 963 -62 1081 -40 76 -126 162 -198 198 -100 51 -154 61
-301 58 l-134 -3 -20 -32 c-18 -29 -25 -32 -65 -32 -40 0 -47 3 -65 32 l-20
32 -1920 2 c-1817 2 -1923 1 -1975 -16z m405 -485 c69 -53 92 -143 56 -221
-25 -55 -62 -86 -117 -100 -83 -21 -148 2 -201 72 -24 32 -28 45 -28 104 0 60
3 71 31 106 45 56 87 75 160 71 49 -3 69 -10 99 -32z m760 14 c69 -34 113
-116 100 -188 -29 -162 -242 -207 -332 -70 -59 88 -26 210 69 257 54 26 110
27 163 1z"/>
<path d="M1606 1271 c-25 -27 -24 -78 3 -104 l22 -22 929 0 929 0 22 22 c29
29 28 81 -2 105 -20 17 -79 18 -954 18 -903 0 -932 -1 -949 -19z"/>
<path d="M1578 936 c-30 -22 -40 -63 -23 -95 8 -16 22 -31 30 -35 22 -8 1929
-8 1950 0 44 17 48 99 7 130 -25 20 -1939 20 -1964 0z"/>
<path d="M1544 596 c-49 -22 -61 -87 -23 -122 20 -18 52 -19 1039 -19 987 0
1019 1 1039 19 22 20 28 65 11 96 -5 10 -24 23 -41 29 -51 18 -1984 15 -2025
-3z"/>
</g>
</svg>
