<?xml version="1.0" standalone="no"?>
<!DOCTYPE svg PUBLIC "-//W3C//DTD SVG 20010904//EN"
 "http://www.w3.org/TR/2001/REC-SVG-20010904/DTD/svg10.dtd">
<svg version="1.0" xmlns="http://www.w3.org/2000/svg"
 width="512.000000pt" height="512.000000pt" viewBox="0 0 512.000000 512.000000"
 preserveAspectRatio="xMidYMid meet">

<g transform="translate(0.000000,512.000000) scale(0.100000,-0.100000)"
fill="#000000" stroke="none">
<path d="M2020 4791 c-83 -26 -151 -93 -174 -172 -12 -40 -16 -101 -16 -248 0
-185 -2 -199 -24 -246 -41 -89 -115 -135 -213 -135 -69 0 -97 12 -273 115 -72
42 -152 84 -177 92 -87 30 -193 2 -259 -69 -38 -39 -505 -845 -524 -902 -26
-80 2 -187 65 -250 17 -17 104 -73 193 -125 211 -121 252 -169 252 -292 0 -51
-36 -133 -71 -166 -13 -12 -98 -65 -189 -117 -93 -54 -179 -112 -197 -132 -56
-63 -78 -168 -51 -245 21 -60 489 -863 526 -902 39 -40 122 -77 176 -77 58 0
117 25 266 111 177 103 197 112 263 112 94 0 173 -51 213 -138 22 -47 24 -61
24 -246 0 -240 9 -279 80 -349 79 -80 77 -80 640 -80 516 0 550 3 609 49 23
18 25 18 98 -6 339 -107 720 -48 1013 158 347 244 549 708 490 1124 -37 258
-176 524 -357 682 -36 32 -90 81 -120 109 -53 51 -53 51 -53 113 0 73 19 124
63 169 17 18 103 74 189 124 170 99 207 129 241 192 31 59 30 165 -2 226 -79
151 -479 831 -505 858 -53 57 -101 77 -187 77 l-75 0 -160 -91 c-225 -129
-221 -127 -290 -128 -82 0 -156 41 -199 109 l-30 48 -5 231 c-6 253 -10 271
-70 340 -18 20 -52 47 -74 59 -41 22 -47 22 -561 24 -286 1 -531 -2 -545 -6z
m1052 -180 l33 -29 5 -234 c5 -227 6 -235 32 -290 91 -196 328 -286 521 -200
23 11 109 58 192 105 151 88 180 97 224 73 16 -9 106 -154 265 -427 203 -351
240 -420 240 -455 1 -22 -5 -48 -12 -57 -7 -9 -86 -58 -175 -109 -181 -104
-248 -161 -291 -249 -15 -31 -30 -82 -33 -114 -5 -46 -9 -56 -22 -52 -9 3 -48
17 -88 31 -270 95 -607 69 -878 -67 -167 -83 -351 -242 -453 -390 -71 -103
-137 -245 -169 -364 -25 -90 -27 -114 -27 -283 1 -167 3 -195 26 -281 80 -296
234 -521 472 -688 l59 -41 -466 0 -467 0 -32 29 -33 29 -5 229 c-5 208 -7 232
-28 276 -73 161 -205 248 -373 248 -98 0 -140 -16 -339 -130 -86 -50 -167 -91
-179 -91 -57 0 -71 19 -319 448 -170 296 -242 429 -242 451 0 46 31 72 195
167 180 104 213 129 258 197 53 81 70 144 65 246 -9 174 -74 255 -326 400 -89
51 -169 103 -177 114 -32 46 -21 69 228 499 248 430 261 448 319 448 13 0 97
-43 188 -95 195 -113 242 -129 356 -123 66 3 94 10 146 36 81 40 151 109 191
192 l32 64 3 216 c2 125 7 227 14 243 22 56 20 56 550 57 l488 0 32 -29z m643
-2121 c125 -14 223 -43 340 -99 256 -123 428 -330 509 -613 54 -189 58 -373
12 -545 -50 -184 -130 -321 -270 -458 -138 -137 -285 -220 -473 -267 -125 -32
-341 -32 -466 0 -195 49 -336 130 -482 276 -226 228 -328 525 -285 831 24 163
90 344 170 460 174 253 482 414 815 424 22 0 81 -4 130 -9z"/>
<path d="M2335 3640 c-451 -97 -777 -430 -861 -879 -22 -118 -15 -344 14 -456
71 -269 233 -498 461 -649 81 -54 238 -126 274 -126 55 0 87 84 50 128 -10 11
-52 35 -92 52 -214 89 -415 289 -493 492 -40 102 -59 194 -65 308 -13 266 78
516 255 701 92 97 142 135 251 189 256 128 583 129 836 2 211 -105 396 -315
464 -524 34 -105 172 -83 158 25 -8 57 -99 235 -167 325 -145 193 -360 336
-597 399 -136 36 -356 42 -488 13z"/>
<path d="M3482 2285 c-29 -15 -63 -41 -76 -59 -52 -70 -54 -105 -31 -552 16
-315 22 -342 87 -398 81 -70 194 -70 276 -1 66 57 72 83 87 404 21 420 21 446
-12 512 -40 78 -100 113 -202 117 -66 3 -83 0 -129 -23z m181 -156 c21 -26 21
-74 3 -444 -13 -257 -15 -270 -36 -287 -12 -10 -26 -18 -30 -18 -4 0 -18 8
-30 18 -21 17 -23 30 -36 287 -20 401 -19 420 12 452 21 21 32 24 62 19 20 -3
45 -15 55 -27z"/>
<path d="M3510 1124 c-128 -55 -181 -211 -114 -333 82 -152 274 -172 386 -41
133 154 23 391 -179 390 -32 -1 -74 -8 -93 -16z m147 -166 c45 -42 22 -118
-42 -134 -50 -12 -103 48 -89 102 13 53 89 72 131 32z"/>
</g>
</svg>
